{"title":"Gods.of.Egypt.2016.HD-TS.XVID.AC3.HQ.Hive-CM8","uid":13731437,"size":1840473631,"categoryP":"video","categoryS":"movies","magnet":"?xt=urn:btih:dd1292cd1029cdfc43da27793cb7a8eba3db2a2c&amp;dn=Gods.of.Egypt.2016.HD-TS.XVID.AC3.HQ.Hive-CM8&amp;tr=udp%3A%2F%2Ftracker.leechers-paradise.org%3A6969&amp;tr=udp%3A%2F%2Fzer0day.ch%3A1337&amp;tr=udp%3A%2F%2Fopen.demonii.com%3A1337&amp;tr=udp%3A%2F%2Ftracker.coppersurfer.tk%3A6969&amp;tr=udp%3A%2F%2Fexodus.desync.com%3A6969","seeders":78,"leechers":24,"uploader":"SaM","files":4,"time":1457015396,"description":"Gods.of.Egypt.2016.HD-TS.XVID.AC3.HQ.Hive-CM8[/b][/size][/color]\r\n\r\nThx Hive\r\n\r\nCM8 Doing It Right The First Time \r\n\r\nSources:\r\n\r\nVideo: 1080P HDCAM Incoming big thx\r\n\r\nAudio: Sweet Direct Line Big Thx to S4NDM4N\r\n\r\n\r\nNotes:\r\n\r\nGot this great cam, quality was amazing, its definately the best cam i have seen so far.\r\nHas no kind of faults, no flicker, nothing cropped, no movements, all bright,nightscenes are good,and no heads in the view\r\nAnother perfect release, best possible Video and best possible Line combined for this blockbuster.\r\nOne good release is the way to go, patience\r\nthx for everyone involved\r\nand nope its not the russian cam floating, its a new one\r\n\r\nEncode:\r\n\r\nVideo was already awesome, rotated,fixed ar and perspective, fixed rgb.\r\nFull Video and Audio, nothing is missing\r\n\r\nAudio was a nice line, sounds perfect,lipsycned it to my video\r\n\r\nthe videoquality speaks for itself, check sample\r\n\r\nwont get better than this till retail\r\nenjoy\r\n\r\nVideo: 720x400 @bitrate 1800 2pass\r\nAudio: Line AC3 2.0 Stereo\r\nSample: yes included\r\n\r\n\r\n \nhttp://www.imdb.com/title/tt2404233/\r\n\r\n\r\nGeneral\r\nComplete name                  : Gods.of.Egypt.2016.HD-TS.XVID.AC3.HQ.Hive-CM8.avi\r\nFormat                         : AVI\r\nFormat/Info                    : Audio Video Interleave\r\nFile size                      : 1.69 GiB\r\nDuration                       : 1h 56mn\r\nOverall bit rate               : 2 071 Kbps\r\nWriting application            : Nandub v1.0rc2\r\nWriting library                : Nandub build 1853/release\r\n\r\nVideo\r\nID                             : 0\r\nFormat                         : MPEG-4 Visual\r\nFormat profile                 : Advanced   \r\nFormat settings, BVOP          : 2\r\nFormat settings, QPel          : Yes\r\nFormat settings, GMC           : No warppoints\r\nFormat settings, Matrix        : Default (H.263)\r\nMuxing mode                    : Packed bitstream\r\nCodec ID                       : XVID\r\nCodec ID/Hint                  : XviD\r\nDuration                       : 1h 56mn\r\nBit rate                       : 1 803 Kbps\r\nWidth                          : 720 pixels\r\nHeight                         : 400 pixels\r\nDisplay aspect ratio           : 16:9\r\nFrame rate                     : 29.970 fps\r\nColor space                    : YUV\r\nChroma subsampling             : 4:2:0\r\nBit depth                      : 8 bits\r\nScan type                      : Progressive\r\nCompression mode               : Lossy\r\nBits/(Pixel*Frame)             : 0.209\r\nStream size                    : 1.47 GiB (87%)\r\nWriting library                : XviD 1.2.1 (UTC 2008-12-04)\r\n\r\nAudio\r\nID                             : 1\r\nFormat                         : AC-3\r\nFormat/Info                    : Audio Coding 3\r\nMode extension                 : CM (complete main)\r\nFormat settings, Endianness    : Big\r\nCodec ID                       : 2000\r\nDuration                       : 1h 56mn\r\nBit rate mode                  : Constant\r\nBit rate                       : 256 Kbps\r\nChannel(s)                     : 2 channels\r\nChannel positions              : Front: L R\r\nSampling rate                  : 48.0 KHz\r\nBit depth                      : 16 bits\r\nCompression mode               : Lossy\r\nStream size                    : 214 MiB (12%)\r\nAlignment                      : Split accross interleaves\r\nInterleave, duration           : 33 ms (1.00 video frame)\r\nInterleave, preload duration   : 500 ms\r\n\r\n \nhttp://extraimago.com/image/aNT7 \nhttp://extraimago.com/image/aNTs \nhttp://extraimago.com/image/aNTn \nhttp://extraimago.com/image/aNTj \nhttp://extraimago.com/image/aNTT \nhttp://extraimago.com/image/aNTN\r\n\r\nPlot\r\n\r\nMortal hero Bek teams with the god Horus in an alliance against Set, the merciless god of darkness who has usurped Egypt's throne, plunging the once peaceful and prosperous empire into chaos and conflict. \r\n\r\n\r\n\r\nCast\r\n\r\nCast overview, first billed only:\r\nBrenton Thwaites      ...  Bek  \r\nJohn Samaha           ...  Vendor  \r\nCourtney Eaton          ...  Zaya  \r\nNikolaj Coster-Waldau    ...  Horus  \r\nPaula Arundell       ...  Fussy Older Maidservant  \r\nAlia Seror-O'Neill       ...  First Young Maidservant  \r\nEmily Wheaton           ...  Second Younger Maidservant  \r\nElodie Yung             ...  Hathor  \r\nRachael Blake           ...  Isis  \r\nBryan Brown           ...  Osiris  \r\nMichael-Anthony Taylor   ...  Priest  \r\nEmma Booth           ...  Nephthys  \r\nFelix Williamson       ...  Nobleman  \r\nChadwick Boseman       ...  Thoth  \r\nGerard Butler            ...  Set  \r\n\r\nLOOKING FOR ANYTHING YOU WANT TO LOOK AND SOUND BETTER\r\n\r\nCOME FIND US WE DONT BITE","torrent":{"xt":"urn:btih:dd1292cd1029cdfc43da27793cb7a8eba3db2a2c","amp;dn":"Gods.of.Egypt.2016.HD-TS.XVID.AC3.HQ.Hive-CM8","amp;tr":["udp%3A%2F%2Ftracker.leechers-paradise.org%3A6969","udp%3A%2F%2Fzer0day.ch%3A1337","udp%3A%2F%2Fopen.demonii.com%3A1337","udp%3A%2F%2Ftracker.coppersurfer.tk%3A6969","udp%3A%2F%2Fexodus.desync.com%3A6969"],"infoHash":"dd1292cd1029cdfc43da27793cb7a8eba3db2a2c","infoHashBuffer":{"type":"Buffer","data":[221,18,146,205,16,41,205,252,67,218,39,121,60,183,168,235,163,219,42,44]},"announce":[],"urlList":[]}}